<svg width="100" height="51" viewBox="0 0 100 51" fill="none" xmlns="http://www.w3.org/2000/svg">
<path d="M35.989 29.3028C33.5624 28.205 30.9314 25.2598 31.6772 22.4887C32.0502 22.3932 32.4426 22.5453 32.6539 22.8673C32.6539 22.8673 36.8635 29.4429 35.6824 23.3935C35.1259 20.5505 34.1681 17.8021 34.0924 14.8644C33.9675 9.52672 38.8661 8.04654 40.2743 13.9445C40.4598 14.7244 41.1715 21.0653 42.7918 20.3385C43.0005 20.2287 43.1698 20.0567 43.2763 19.8463C44.0978 18.4986 44.3439 16.5188 45.8506 16.0607C47.1717 15.6443 48.474 16.7913 49.1857 17.9762C50.628 20.3839 52.5587 26.369 49.6059 28.3981C46.6531 30.4272 39.203 30.7489 36.0155 29.3293L35.989 29.3028Z" fill="url(#paint0_linear_32760_1165)"/>
<path d="M85.0757 30.4242C86.8442 28.9388 88.3428 25.8624 87.0615 23.719C86.7248 23.7302 86.4335 23.957 86.3402 24.2807C86.3402 24.2807 84.3785 30.7597 83.9381 25.4338C83.7192 22.9198 83.867 20.4044 83.2551 17.9446C82.1178 13.4487 77.6675 13.3783 77.8816 18.6287C77.9047 19.3212 78.8107 24.7789 77.2869 24.5585C77.0877 24.5142 76.9068 24.4105 76.7679 24.2611C75.7638 23.3316 75.089 21.7377 73.7243 21.6986C72.5255 21.6648 71.7113 22.9237 71.3942 24.081C70.7586 26.428 71.6494 29.8461 74.5904 30.8419C77.596 31.8552 82.744 32.3811 85.0567 30.4404L85.0757 30.4242Z" fill="url(#paint1_linear_32760_1165)"/>
<path d="M0.972649 49.9501C14.801 35.527 34.3426 26.5342 56 26.5342C77.6574 26.5342 97.199 35.527 111.027 49.9501H0.972649Z" fill="url(#paint2_linear_32760_1165)"/>
<path d="M44.8105 25.4159C44.8105 25.8098 44.909 26.1688 45.1059 26.4932C46.2442 28.3679 49.6893 29.5564 52.1689 30.193C53.9549 30.6515 55.8207 30.6515 57.6067 30.193C60.0864 29.5564 63.5315 28.3679 64.6698 26.4932C64.8667 26.1688 64.9651 25.8098 64.9651 25.4159V20.5439L56.3473 25.2698C56.1156 25.3857 55.8782 25.5015 55.635 25.6173C55.3917 25.7332 55.1427 25.7911 54.8878 25.7911C54.633 25.7911 54.3898 25.7332 54.1581 25.6173L53.4631 25.2698L44.8105 20.5439V25.4159Z" fill="url(#paint3_linear_32760_1165)"/>
<path d="M68.1275 26.1922V17.0788L55.8957 23.6812C55.7336 23.7739 55.5714 23.8376 55.4092 23.8723C55.2471 23.9071 55.0733 23.9244 54.888 23.9244C54.7027 23.9244 54.5347 23.9071 54.3841 23.8723C54.2335 23.8376 54.0772 23.7739 53.915 23.6812L41.301 16.7661C41.1157 16.6734 40.9825 16.546 40.9014 16.3839C40.8203 16.2217 40.7798 16.0479 40.7798 15.8626C40.7798 15.6773 40.8203 15.5035 40.9014 15.3414C40.9825 15.1792 41.1157 15.0518 41.301 14.9591L53.8803 8.07877C54.0424 7.98611 54.2046 7.91661 54.3667 7.87028C54.5289 7.82394 54.7027 7.80078 54.888 7.80078C55.0733 7.80078 55.2471 7.82394 55.4092 7.87028C55.5714 7.91661 55.7336 7.98611 55.8957 8.07877L69.6565 15.5499C69.8418 15.6657 69.9808 15.8047 70.0734 15.9669C70.1661 16.129 70.2124 16.3028 70.2124 16.4881V26.1922C71.4727 26.9421 71.5829 28.6691 70.3637 29.5691C70.168 29.7158 70.1492 29.8249 70.2245 30.0319C70.4878 30.7355 70.7324 31.4466 70.977 32.1578C71.1802 32.7448 70.9394 33.0797 70.3185 33.0909C70.0175 33.0943 69.7194 33.0917 69.4216 33.0911L69.2988 33.0909C69.1831 33.0909 69.0673 33.0924 68.9516 33.0938C68.691 33.097 68.4306 33.1002 68.17 33.0872C67.6658 33.0646 67.4326 32.7147 67.5944 32.2368C67.8464 31.488 68.1023 30.743 68.377 30.0018C68.4522 29.8024 68.4184 29.7083 68.2415 29.5766C67.1132 28.747 67.0915 27.0459 68.1275 26.1922Z" fill="url(#paint4_linear_32760_1165)"/>
<defs>
<linearGradient id="paint0_linear_32760_1165" x1="37.2679" y1="53.463" x2="41.1181" y2="10.1216" gradientUnits="userSpaceOnUse">
<stop stop-color="white" stop-opacity="0"/>
<stop offset="1" stop-color="#DDE9F7"/>
</linearGradient>
<linearGradient id="paint1_linear_32760_1165" x1="80.6018" y1="29.2646" x2="83.7976" y2="4.9325" gradientUnits="userSpaceOnUse">
<stop stop-color="#E5F1FF" stop-opacity="0.3"/>
<stop offset="1" stop-color="#E7EFF7"/>
</linearGradient>
<linearGradient id="paint2_linear_32760_1165" x1="52.1746" y1="50.2944" x2="51.5726" y2="22.9031" gradientUnits="userSpaceOnUse">
<stop stop-color="white" stop-opacity="0"/>
<stop offset="1" stop-color="#DDE9F7"/>
</linearGradient>
<linearGradient id="paint3_linear_32760_1165" x1="56.613" y1="20.1195" x2="41.5692" y2="37.144" gradientUnits="userSpaceOnUse">
<stop stop-color="#0382CC"/>
<stop offset="1" stop-color="#2FAEFD"/>
</linearGradient>
<linearGradient id="paint4_linear_32760_1165" x1="55.9561" y1="6.15694" x2="39.4827" y2="33.7928" gradientUnits="userSpaceOnUse">
<stop stop-color="#094A9E"/>
<stop offset="1" stop-color="#4E8FE3"/>
</linearGradient>
</defs>
</svg>
